<svg width="164" height="39" viewBox="0 0 164 39" fill="none" xmlns="http://www.w3.org/2000/svg">
<g filter="url(#filter0_d_1_5)">
<path d="M8.94318 0.727272V24H4.02273V0.727272H8.94318ZM12.9006 24V6.54545H17.5938V9.59091H17.7756C18.0938 8.50758 18.6278 7.68939 19.3778 7.13636C20.1278 6.57576 20.9915 6.29545 21.9688 6.29545C22.2112 6.29545 22.4725 6.31061 22.7528 6.34091C23.0331 6.37121 23.2794 6.41288 23.4915 6.46591V10.7614C23.2642 10.6932 22.9498 10.6326 22.5483 10.5795C22.1468 10.5265 21.7794 10.5 21.446 10.5C20.7339 10.5 20.0975 10.6553 19.5369 10.9659C18.9839 11.2689 18.5445 11.6932 18.2188 12.2386C17.9006 12.7841 17.7415 13.4129 17.7415 14.125V24H12.9006ZM33.0682 24.3409C31.303 24.3409 29.7765 23.9659 28.4886 23.2159C27.2083 22.4583 26.2197 21.4053 25.5227 20.0568C24.8258 18.7008 24.4773 17.1288 24.4773 15.3409C24.4773 13.5379 24.8258 11.9621 25.5227 10.6136C26.2197 9.25758 27.2083 8.20454 28.4886 7.45454C29.7765 6.69697 31.303 6.31818 33.0682 6.31818C34.8333 6.31818 36.3561 6.69697 37.6364 7.45454C38.9242 8.20454 39.9167 9.25758 40.6136 10.6136C41.3106 11.9621 41.6591 13.5379 41.6591 15.3409C41.6591 17.1288 41.3106 18.7008 40.6136 20.0568C39.9167 21.4053 38.9242 22.4583 37.6364 23.2159C36.3561 23.9659 34.8333 24.3409 33.0682 24.3409ZM33.0909 20.5909C33.8939 20.5909 34.5644 20.3636 35.1023 19.9091C35.6402 19.447 36.0455 18.8182 36.3182 18.0227C36.5985 17.2273 36.7386 16.322 36.7386 15.3068C36.7386 14.2917 36.5985 13.3864 36.3182 12.5909C36.0455 11.7955 35.6402 11.1667 35.1023 10.7045C34.5644 10.2424 33.8939 10.0114 33.0909 10.0114C32.2803 10.0114 31.5985 10.2424 31.0455 10.7045C30.5 11.1667 30.0871 11.7955 29.8068 12.5909C29.5341 13.3864 29.3977 14.2917 29.3977 15.3068C29.3977 16.322 29.5341 17.2273 29.8068 18.0227C30.0871 18.8182 30.5 19.447 31.0455 19.9091C31.5985 20.3636 32.2803 20.5909 33.0909 20.5909ZM49.6477 13.9091V24H44.8068V6.54545H49.4205V9.625H49.625C50.0114 8.60985 50.6591 7.80682 51.5682 7.21591C52.4773 6.61742 53.5795 6.31818 54.875 6.31818C56.0871 6.31818 57.1439 6.58333 58.0455 7.11364C58.947 7.64394 59.6477 8.40151 60.1477 9.38636C60.6477 10.3636 60.8977 11.5303 60.8977 12.8864V24H56.0568V13.75C56.0644 12.6818 55.7917 11.8485 55.2386 11.25C54.6856 10.6439 53.9242 10.3409 52.9545 10.3409C52.303 10.3409 51.7273 10.4811 51.2273 10.7614C50.7348 11.0417 50.3485 11.4508 50.0682 11.9886C49.7955 12.5189 49.6553 13.1591 49.6477 13.9091ZM77.429 7.42045C77.3381 6.50379 76.9479 5.79167 76.2585 5.28409C75.5691 4.77651 74.6335 4.52273 73.4517 4.52273C72.6487 4.52273 71.9706 4.63636 71.4176 4.86364C70.8646 5.08333 70.4403 5.39015 70.1449 5.78409C69.857 6.17803 69.7131 6.625 69.7131 7.125C69.6979 7.54167 69.785 7.9053 69.9744 8.21591C70.1714 8.52652 70.4403 8.79545 70.7812 9.02273C71.1222 9.24242 71.5161 9.43561 71.9631 9.60227C72.41 9.76136 72.8873 9.89773 73.3949 10.0114L75.4858 10.5114C76.5009 10.7386 77.4328 11.0417 78.2812 11.4205C79.1297 11.7992 79.8646 12.2652 80.4858 12.8182C81.107 13.3712 81.5881 14.0227 81.929 14.7727C82.2775 15.5227 82.4555 16.3826 82.4631 17.3523C82.4555 18.7765 82.0919 20.0114 81.3722 21.0568C80.66 22.0947 79.6297 22.9015 78.2812 23.4773C76.9403 24.0455 75.3229 24.3295 73.429 24.3295C71.5502 24.3295 69.9138 24.0417 68.5199 23.4659C67.1335 22.8902 66.0502 22.0379 65.2699 20.9091C64.4972 19.7727 64.0919 18.3674 64.054 16.6932H68.8153C68.8684 17.4735 69.0919 18.125 69.4858 18.6477C69.8873 19.1629 70.4214 19.553 71.0881 19.8182C71.7623 20.0758 72.5237 20.2045 73.3722 20.2045C74.2055 20.2045 74.929 20.0833 75.5426 19.8409C76.1638 19.5985 76.6449 19.2614 76.9858 18.8295C77.3267 18.3977 77.4972 17.9015 77.4972 17.3409C77.4972 16.8182 77.3419 16.3788 77.0312 16.0227C76.7282 15.6667 76.2813 15.3636 75.6903 15.1136C75.107 14.8636 74.3911 14.6364 73.5426 14.4318L71.0085 13.7955C69.0464 13.3182 67.4972 12.572 66.3608 11.5568C65.2244 10.5417 64.66 9.17424 64.6676 7.45454C64.66 6.04545 65.035 4.81439 65.7926 3.76136C66.5578 2.70833 67.607 1.88636 68.9403 1.29545C70.2737 0.704545 71.7888 0.40909 73.4858 0.40909C75.2131 0.40909 76.7206 0.704545 78.0085 1.29545C79.304 1.88636 80.3116 2.70833 81.0312 3.76136C81.7509 4.81439 82.1222 6.03409 82.1449 7.42045H77.429ZM85.6818 30.5455V6.54545H90.4545V9.47727H90.6705C90.8826 9.00758 91.1894 8.5303 91.5909 8.04545C92 7.55303 92.5303 7.14394 93.1818 6.81818C93.8409 6.48485 94.6591 6.31818 95.6364 6.31818C96.9091 6.31818 98.0833 6.65152 99.1591 7.31818C100.235 7.97727 101.095 8.97348 101.739 10.3068C102.383 11.6326 102.705 13.2955 102.705 15.2955C102.705 17.2424 102.39 18.8864 101.761 20.2273C101.14 21.5606 100.292 22.572 99.2159 23.2614C98.1477 23.9432 96.9508 24.2841 95.625 24.2841C94.6856 24.2841 93.8864 24.1288 93.2273 23.8182C92.5758 23.5076 92.0417 23.1174 91.625 22.6477C91.2083 22.1705 90.8902 21.6894 90.6705 21.2045H90.5227V30.5455H85.6818ZM90.4205 15.2727C90.4205 16.3106 90.5644 17.2159 90.8523 17.9886C91.1402 18.7614 91.5568 19.3636 92.1023 19.7955C92.6477 20.2197 93.3106 20.4318 94.0909 20.4318C94.8788 20.4318 95.5455 20.2159 96.0909 19.7841C96.6364 19.3447 97.0492 18.7386 97.3295 17.9659C97.6174 17.1856 97.7614 16.2879 97.7614 15.2727C97.7614 14.2652 97.6212 13.3788 97.3409 12.6136C97.0606 11.8485 96.6477 11.25 96.1023 10.8182C95.5568 10.3864 94.8864 10.1705 94.0909 10.1705C93.303 10.1705 92.6364 10.3788 92.0909 10.7955C91.553 11.2121 91.1402 11.803 90.8523 12.5682C90.5644 13.3333 90.4205 14.2348 90.4205 15.2727ZM110.909 24.3295C109.795 24.3295 108.803 24.1364 107.932 23.75C107.061 23.3561 106.371 22.7765 105.864 22.0114C105.364 21.2386 105.114 20.2765 105.114 19.125C105.114 18.1553 105.292 17.3409 105.648 16.6818C106.004 16.0227 106.489 15.4924 107.102 15.0909C107.716 14.6894 108.413 14.3864 109.193 14.1818C109.981 13.9773 110.807 13.8333 111.67 13.75C112.686 13.6439 113.504 13.5455 114.125 13.4545C114.746 13.3561 115.197 13.2121 115.477 13.0227C115.758 12.8333 115.898 12.553 115.898 12.1818V12.1136C115.898 11.3939 115.67 10.8371 115.216 10.4432C114.769 10.0492 114.133 9.85227 113.307 9.85227C112.436 9.85227 111.742 10.0455 111.227 10.4318C110.712 10.8106 110.371 11.2879 110.205 11.8636L105.727 11.5C105.955 10.4394 106.402 9.52273 107.068 8.75C107.735 7.9697 108.595 7.37121 109.648 6.95454C110.708 6.5303 111.936 6.31818 113.33 6.31818C114.299 6.31818 115.227 6.43182 116.114 6.65909C117.008 6.88636 117.799 7.23864 118.489 7.71591C119.186 8.19318 119.735 8.80682 120.136 9.55682C120.538 10.2992 120.739 11.1894 120.739 12.2273V24H116.148V21.5795H116.011C115.731 22.125 115.356 22.6061 114.886 23.0227C114.417 23.4318 113.852 23.7538 113.193 23.9886C112.534 24.2159 111.773 24.3295 110.909 24.3295ZM112.295 20.9886C113.008 20.9886 113.636 20.8485 114.182 20.5682C114.727 20.2803 115.155 19.8939 115.466 19.4091C115.777 18.9242 115.932 18.375 115.932 17.7614V15.9091C115.78 16.0076 115.572 16.0985 115.307 16.1818C115.049 16.2576 114.758 16.3295 114.432 16.3977C114.106 16.4583 113.78 16.5152 113.455 16.5682C113.129 16.6136 112.833 16.6553 112.568 16.6932C112 16.7765 111.504 16.9091 111.08 17.0909C110.655 17.2727 110.326 17.5189 110.091 17.8295C109.856 18.1326 109.739 18.5114 109.739 18.9659C109.739 19.625 109.977 20.1288 110.455 20.4773C110.939 20.8182 111.553 20.9886 112.295 20.9886ZM132.381 24.3409C130.593 24.3409 129.055 23.9621 127.767 23.2045C126.487 22.4394 125.502 21.3788 124.812 20.0227C124.131 18.6667 123.79 17.1061 123.79 15.3409C123.79 13.553 124.134 11.9848 124.824 10.6364C125.521 9.2803 126.509 8.22348 127.79 7.46591C129.07 6.70076 130.593 6.31818 132.358 6.31818C133.881 6.31818 135.214 6.5947 136.358 7.14773C137.502 7.70076 138.407 8.47727 139.074 9.47727C139.741 10.4773 140.108 11.6515 140.176 13H135.608C135.479 12.1288 135.138 11.428 134.585 10.8977C134.04 10.3598 133.324 10.0909 132.438 10.0909C131.688 10.0909 131.032 10.2955 130.472 10.7045C129.919 11.1061 129.487 11.6932 129.176 12.4659C128.866 13.2386 128.71 14.1742 128.71 15.2727C128.71 16.3864 128.862 17.3333 129.165 18.1136C129.475 18.8939 129.911 19.4886 130.472 19.8977C131.032 20.3068 131.688 20.5114 132.438 20.5114C132.991 20.5114 133.487 20.3977 133.926 20.1705C134.373 19.9432 134.741 19.6136 135.028 19.1818C135.324 18.7424 135.517 18.2159 135.608 17.6023H140.176C140.1 18.9356 139.737 20.1098 139.085 21.125C138.441 22.1326 137.551 22.9205 136.415 23.4886C135.278 24.0568 133.934 24.3409 132.381 24.3409ZM151.23 24.3409C149.435 24.3409 147.889 23.9773 146.594 23.25C145.306 22.5152 144.313 21.4773 143.616 20.1364C142.92 18.7879 142.571 17.1932 142.571 15.3523C142.571 13.5568 142.92 11.9811 143.616 10.625C144.313 9.26894 145.295 8.21212 146.56 7.45454C147.832 6.69697 149.325 6.31818 151.037 6.31818C152.188 6.31818 153.26 6.50379 154.253 6.875C155.253 7.23864 156.124 7.78788 156.866 8.52273C157.616 9.25758 158.2 10.1818 158.616 11.2955C159.033 12.4015 159.241 13.697 159.241 15.1818V16.5114H144.503V13.5114H154.685C154.685 12.8144 154.533 12.197 154.23 11.6591C153.927 11.1212 153.507 10.7008 152.969 10.3977C152.438 10.0871 151.821 9.93182 151.116 9.93182C150.382 9.93182 149.73 10.1023 149.162 10.4432C148.601 10.7765 148.162 11.2273 147.844 11.7955C147.526 12.3561 147.363 12.9811 147.355 13.6705V16.5227C147.355 17.3864 147.514 18.1326 147.832 18.7614C148.158 19.3902 148.616 19.875 149.207 20.2159C149.798 20.5568 150.499 20.7273 151.31 20.7273C151.848 20.7273 152.34 20.6515 152.787 20.5C153.234 20.3485 153.616 20.1212 153.935 19.8182C154.253 19.5152 154.495 19.1439 154.662 18.7045L159.139 19C158.912 20.0758 158.446 21.0152 157.741 21.8182C157.045 22.6136 156.143 23.2348 155.037 23.6818C153.938 24.1212 152.67 24.3409 151.23 24.3409Z" fill="#1243A1"/>
</g>
<defs>
<filter id="filter0_d_1_5" x="0.022728" y="0.409088" width="163.219" height="38.1364" filterUnits="userSpaceOnUse" color-interpolation-filters="sRGB">
<feFlood flood-opacity="0" result="BackgroundImageFix"/>
<feColorMatrix in="SourceAlpha" type="matrix" values="0 0 0 0 0 0 0 0 0 0 0 0 0 0 0 0 0 0 127 0" result="hardAlpha"/>
<feOffset dy="4"/>
<feGaussianBlur stdDeviation="2"/>
<feComposite in2="hardAlpha" operator="out"/>
<feColorMatrix type="matrix" values="0 0 0 0 0 0 0 0 0 0 0 0 0 0 0 0 0 0 0.25 0"/>
<feBlend mode="normal" in2="BackgroundImageFix" result="effect1_dropShadow_1_5"/>
<feBlend mode="normal" in="SourceGraphic" in2="effect1_dropShadow_1_5" result="shape"/>
</filter>
</defs>
</svg>
